<?xml version="1.0" encoding="utf-8"?>
<!-- Generator: Adobe Illustrator 16.0.0, SVG Export Plug-In . SVG Version: 6.00 Build 0)  -->
<!DOCTYPE svg PUBLIC "-//W3C//DTD SVG 1.1//EN" "http://www.w3.org/Graphics/SVG/1.1/DTD/svg11.dtd">
<svg version="1.1" id="Layer_1" xmlns="http://www.w3.org/2000/svg" xmlns:xlink="http://www.w3.org/1999/xlink" x="0px" y="0px"
	 width="524px" height="524px" viewBox="218.5 21.5 524 524" enable-background="new 218.5 21.5 524 524" xml:space="preserve">
<path fill="#394F56" d="M493.553,465.732l-80.78,73.78c-2.1,1.96-0.7,5.32,2.1,5.32h175.98c2.8,0,4.2-3.5,2.1-5.32l-80.779-73.78
	C506.992,460.973,498.872,460.973,493.553,465.732z"/>
<path fill="#394F56" d="M431.812,215.413l-202.3,202.3l-2.94,2.939c-5.04,5.04-7.84,11.761-7.84,18.761v86.52
	c0,3.78,1.54,7.14,4.06,9.52l246.26-246.26C449.312,267.772,436.992,242.153,431.812,215.413z"/>
<path fill="#546C72" d="M469.053,289.053l-246.4,246.399c2.38,2.24,5.6,3.78,9.1,3.78h86.38c7,0,13.86-2.8,18.76-7.84l3.36-3.36
	l196.56-196.56c-23.24-6.86-45.22-19.46-63.561-37.8C471.853,292.133,470.312,290.593,469.053,289.053z"/>
<path fill="#394F56" d="M482.772,275.333l-13.72,13.72c-19.74-21.28-32.061-47.04-37.101-73.78l13.021-13.02
	C450.292,228.853,462.893,254.333,482.772,275.333z"/>
<path fill="#546C72" d="M551.372,316.913l-14.42,14.42c-23.24-6.86-45.22-19.46-63.56-37.801c-1.54-1.539-2.94-2.939-4.2-4.479
	l13.72-13.72c0.98,1.12,2.101,2.24,3.08,3.22C504.752,297.452,527.433,310.192,551.372,316.913z"/>
<path fill="#E25333" d="M742.192,177.053c-1.12,36.82-15.82,73.36-43.96,101.5c-39.76,39.76-96.32,52.64-147,38.36
	c-23.94-6.721-46.62-19.461-65.521-38.36c-1.119-1.12-2.1-2.24-3.079-3.22c-19.881-21-32.48-46.48-37.94-72.94
	c-9.66-47.74,3.92-99.26,41.02-136.22c28.421-28.42,65.521-43.12,102.761-43.96v43.4c-26.181,0.84-52.08,11.199-71.96,31.22
	c-41.721,41.72-41.721,109.34,0,151.06c41.72,41.72,109.34,41.72,151.06,0c19.601-19.6,30.101-45.08,31.22-70.84H742.192z"/>
<path opacity="0.19" fill="#14272D" enable-background="new    " d="M482.772,275.333l-13.72,13.72
	c-19.74-21.28-32.061-47.04-37.101-73.78l13.021-13.02C450.292,228.853,462.893,254.333,482.772,275.333z"/>
<path opacity="0.19" fill="#14272D" enable-background="new    " d="M551.372,316.913l-14.42,14.42
	c-23.24-6.86-45.22-19.46-63.56-37.801c-1.54-1.539-2.94-2.939-4.2-4.479l13.72-13.72c0.98,1.12,2.101,2.24,3.08,3.22
	C504.752,297.452,527.433,310.192,551.372,316.913z"/>
<path fill="#FF6B43" d="M742.192,177.053h-43.4c-1.119,25.76-11.479,51.101-31.22,70.84c-41.72,41.72-109.34,41.72-151.06,0
	c-41.721-41.72-41.721-109.34,0-151.06c20.02-20.021,45.92-30.38,71.96-31.22v-43.4c39.62-0.98,79.52,13.72,109.76,43.96
	C728.893,96.692,743.452,137.153,742.192,177.053z"/>
</svg>
